<svg id="SvgjsSvg1001" width="288" height="288" xmlns="http://www.w3.org/2000/svg" version="1.1" xmlns:xlink="http://www.w3.org/1999/xlink" xmlns:svgjs="http://svgjs.com/svgjs"><defs id="SvgjsDefs1002"></defs><g id="SvgjsG1008"><svg xmlns="http://www.w3.org/2000/svg" enable-background="new 0 0 269.84 269.86" viewBox="0 0 269.84 269.86" width="288" height="288"><path d="M134.82,216.08c-46.54,0-84.37-37.83-84.34-84.39c0.03-46.53,37.91-85.5,86.59-84.35c45.37,1.08,82.08,37.95,82.19,84.28
		C219.37,178.3,181.55,216.08,134.82,216.08z M212.53,131.83c0.02-42.81-34.73-77.74-77.36-77.79C92.15,54,57.14,88.72,57.24,131.67
		c0.09,43.98,35.72,77.25,76.86,77.64C176.89,209.72,212.42,175.09,212.53,131.83z" fill="#ffffff" class="color000 svgShape"></path><path d="M213.74 179.92c13.25-23.44 16.78-48.04 9.44-73.87-5.77-20.29-17.51-36.63-34.61-48.99-33.12-23.95-77.75-22.89-109.48 1.57C60.48 72.98 48.83 91.77 44.5 114.9c-4.31 23.04 0 44.62 12.02 65.08-1.39-.34-2.14-1.1-2.98-1.68-3.62-2.47-7.21-5-10.87-7.41-1.13-.74-1.27-1.43-.42-2.4 3.43-3.91 4.19-8.12 1.93-12.96-.83-1.78-.94-3.91-1.32-5.9-.27-1.41-.8-2.49-2.24-3.09-1.3-.55-2.44-1.48-3.75-1.97-1.98-.74-2.73-2.06-2.85-4.11-.42-6.81-.53-13.61.14-20.42.12-1.25.5-2.21 1.77-2.64 5.07-1.72 8.16-4.97 8.55-10.57.12-1.71.73-3.46 1.48-5.03.94-1.99.62-3.61-.66-5.22-.13-.16-.22-.34-.33-.51-3.01-4.85-3-4.84-.49-9.92 2.61-5.28 5.65-10.28 9.1-15.05.68-.94 1.38-1.39 2.51-1.23 5.2.71 9.8.05 12.94-4.91.94-1.49 2.51-2.66 3.97-3.73 1.62-1.19 2.31-2.68 1.86-4.52-1.26-5.17 1.28-8.02 5.53-10.41 4.7-2.64 9.31-5.44 14.24-7.68 1.18-.54 2.17-.58 3.18.25.1.09.24.13.34.23 4.09 3.81 8.6 3.9 13.52 1.76 1.64-.71 3.52-.93 5.31-1.2 1.56-.24 2.55-.96 3.19-2.4.6-1.35 1.51-2.58 2.04-3.95.7-1.79 2.04-2.35 3.77-2.49 6.53-.52 13.06-.54 19.59-.01 1.89.15 3.37.74 4.04 2.71 1.51 4.43 4.31 7.11 9.25 7.56 2.36.21 4.66 1.29 6.96 2.06 1.19.4 2.21.32 3.24-.41.88-.63 1.94-1.02 2.73-1.73 2.3-2.03 4.51-1.88 7.16-.5 5.52 2.86 10.91 5.91 16.01 9.47 1.37.96 1.99 1.98 1.72 3.7-.72 4.54-.11 8.53 4.17 11.43 1.96 1.33 3.44 3.41 5 5.27.89 1.05 1.85 1.43 3.17 1.32 1.14-.1 2.32.09 3.43-.13 2.86-.55 4.58.64 6.11 3.02 3.46 5.41 6.76 10.88 9.38 16.76.56 1.25.71 2.32-.24 3.35-3.84 4.18-4.21 8.75-1.88 13.83.74 1.62 1.03 3.51 1.22 5.3.17 1.64.89 2.61 2.37 3.14.06.02.13.05.18.08 6.27 3.25 6.26 3.25 6.54 10.34.21 5.4 0 10.78-.44 16.17-.09 1.15-.55 1.85-1.57 2.35-1.28.61-2.44 1.5-3.75 1.98-2.56.94-3.8 2.69-4.19 5.35-.45 3.07-1.41 6.04-2.54 8.93-.57 1.47-.46 2.69.46 3.98.98 1.37 1.76 2.87 2.7 4.28.5.75.59 1.38-.24 1.88C222.26 174.84 218 177.38 213.74 179.92zM134.8 241.03c-11.21 0-22.41-.03-33.62.01-6.29.02-11.03-4.03-11.22-9.75-.21-6.55 4.07-11.2 10.66-11.45 2.97-.11 5.94-.03 8.91-.03 19.58 0 39.15-.01 58.73.01 6.59.01 11.03 3.88 11.57 10 .5 5.67-4 10.91-9.59 11.19-.47.02-.94.01-1.42.01C157.48 241.03 146.14 241.03 134.8 241.03zM97.83 230.85c.81 1.12 1.58 2.18 2.36 3.23.49.66 1.13.95 1.94.73.85-.23.86-.94.87-1.62.01-2.23-.01-4.45 0-6.68.01-1-.43-1.5-1.46-1.47-1.01.03-1.16.67-1.24 1.49-.07.75.31 1.6-.48 2.38-.78-1.08-1.54-2.1-2.27-3.14-.5-.72-1.2-.82-1.97-.7-.9.14-.92.87-.93 1.55-.01 2.16-.02 4.32 0 6.47.01.94.17 1.8 1.41 1.76 1.28-.05 1.23-.98 1.28-1.88C97.39 232.34 97.13 231.63 97.83 230.85zM120.36 229.83c.01 0 .02 0 .03 0 0 1.28-.02 2.56.01 3.83.01.66.23 1.19 1.04 1.2.8.02 1.29-.3 1.39-1.12.04-.33.02-.67.05-1.01.04-.45-.04-.99.6-1.11.55-.1.87.18 1.11.65.33.66.65 1.33 1.06 1.94.54.8 1.41.88 2.16.51.88-.44.37-1.24.05-1.74-.7-1.11-.52-1.96.15-3.09 1.39-2.31.02-4.79-2.69-4.83-6.01-.09-4.81-.74-4.96 4.56C120.36 229.7 120.36 229.76 120.36 229.83zM175.43 232.09c0-1.08.08-1.76-.02-2.42-.19-1.28-.99-2.07-2.27-2.21-1.28-.13-3.52-.03-3.41.83.23 1.82-1.08 3.17-.81 4.81.11.69.57 1.26 1.21 1.54 1.56.68 3.26.49 4.72-.01C176.01 234.23 175.31 232.7 175.43 232.09zM153.11 227.92c-.04-.27-.07-.6-.13-.92-.13-.72.32-1.87-.94-1.85-1.08.02-1.6.79-1.57 1.94.05 2.09.02 4.18.03 6.27 0 .79.1 1.52 1.16 1.51.97-.01 1.27-.59 1.32-1.44.02-.31.1-.62.19-1.17.32.38.53.55.63.77.54 1.17 1.36 2.47 2.69 1.66 1.34-.81-.27-1.81-.5-2.74-.22-.9-1.36-1.65-.4-2.75.34-.38.99-.8.59-1.35-.45-.64-1.22-.35-1.86-.2C153.95 227.75 153.66 228.15 153.11 227.92zM160.85 227.43c-1.78-.01-3.13 1.07-3.43 2.76-.39 2.17.53 4.14 2.24 4.64 1.21.35 2.36.19 3.41-.64.8-.63-.45-1.46.25-1.97 1.33-.97.85-2.15.34-3.22C163.14 227.87 162.12 227.36 160.85 227.43zM143.37 231.24c0-.61.02-1.21 0-1.82-.03-.84.19-1.86-1.17-1.9-1.34-.04-1.26.91-1.27 1.8-.01.61 0 1.21-.01 1.82-.01.57-.09 1.12-.8 1.18-.78.07-.82-.57-.87-1.09-.06-.74-.04-1.48-.07-2.22-.03-.81-.22-1.48-1.23-1.5-.98-.02-1.29.59-1.3 1.43 0 1.21.01 2.42.07 3.63.06 1.13.72 1.87 1.75 2.24 3.04 1.09 4.89-.2 4.89-3.38C143.37 231.38 143.37 231.31 143.37 231.24zM128.89 231.29c.03 2.26 1.36 3.7 3.4 3.68 1.99-.02 3.35-1.55 3.34-3.76 0-2.31-1.44-3.85-3.54-3.78C130.08 227.5 128.86 228.97 128.89 231.29zM111.86 225.03c0 .01 0 .01 0 .02-.94 0-1.89-.01-2.83 0-.62.01-1.03.29-1.06.96-.02.62 0 1.42.77 1.41 2.04-.03 1.78 1.34 1.78 2.62 0 1.15-.01 2.29.04 3.44.03.73.27 1.33 1.16 1.37.99.05 1.3-.57 1.32-1.4.04-1.28.05-2.56.03-3.84-.02-1.14-.05-2.21 1.61-2.12.93.05 1.03-.7 1.01-1.42-.02-.76-.48-1.05-1.2-1.04C113.61 225.04 112.74 225.03 111.86 225.03zM106.99 229.93c0-1.14-.02-2.29.01-3.43.02-.86-.22-1.43-1.22-1.45-.98-.03-1.31.5-1.31 1.37 0 2.36 0 4.71.01 7.07.01.85.34 1.42 1.32 1.38 1.01-.04 1.2-.67 1.19-1.5C106.98 232.22 106.99 231.07 106.99 229.93zM144.89 231.08c0 .2-.05.42.01.6.34 1.07-.9 2.99 1.1 3.09 2.25.11 1.16-1.94 1.35-3.07.15-.95-.05-1.97 1.43-1.83.71.07.94-.44 1.02-1 .1-.7-.31-1.13-.95-1.35-2.44-.86-3.95.19-3.95 2.75C144.89 230.54 144.89 230.81 144.89 231.08zM167.75 229.95c.01 0 .01 0 .02 0 0-1.07.07-2.16-.03-3.22-.06-.61.43-1.7-.79-1.65-.91.04-1.67.55-1.67 1.65 0 2.28 0 4.57.02 6.85.01.78.36 1.28 1.22 1.27.84-.01 1.21-.49 1.23-1.27C167.76 232.37 167.75 231.16 167.75 229.95zM180.75 214.82c-.02-3.92 2.95-7 6.8-7.05 3.87-.05 7.12 3.12 7.17 7 .05 3.74-3.14 6.99-6.91 7.04C183.81 221.85 180.77 218.84 180.75 214.82zM82.17 207.77c3.82.04 6.92 3.16 6.94 7.01.02 3.92-3.14 7.06-7.1 7.03-3.91-.03-7.05-3.28-6.94-7.19C75.18 210.8 78.36 207.73 82.17 207.77z" fill="#ffffff" class="color000 svgShape"></path><path d="M82.05 127.57c-.68-27.41 21.87-53.09 52.86-53.05 30.09.04 52.96 24.24 52.98 53.08.02 29.67-24.75 53.59-54.33 52.92C105.5 179.89 81.39 156.12 82.05 127.57zM109.06 128.38c-6.82 0-13.64-.04-20.46.01-4.92.04-5.25-.98-4.56 4.95 1.08 9.3 4.36 17.67 10.02 25.04 9.49 12.36 22.16 18.97 37.64 20.35 2.03.18 2.38-.75 2.38-2.47-.04-15.12-.05-30.24.01-45.36.01-1.94-.61-2.58-2.55-2.56C124.05 128.43 116.56 128.38 109.06 128.38zM160.88 126.63c7.42 0 14.85 0 22.27 0 3 0 3.05-.01 2.78-3.06-1.27-14.27-7.36-26.09-18.27-35.34-8.33-7.07-18.09-10.82-28.93-11.82-2.83-.26-2.96-.11-2.96 2.76 0 14.92 0 29.83 0 44.75 0 2.7.01 2.71 2.62 2.71C145.9 126.63 153.39 126.63 160.88 126.63zM160.47 145.5c-2.38-.3-4.75-.22-7.14-.1-3.97.2-7.95.2-11.93.3-.9.02-1.43-.35-1.5-1.25-.09-1.16.84-.86 1.41-.86 10.32-.02 20.65 0 30.97-.03 1.3 0 1.42.47 1.09 1.58-.89 3.04-1.75 6.09-2.51 9.16-.36 1.45-.79 2.53-2.61 2.25-.89-.14-1.43.12-.95 1.26.72 1.73.46 3.3-1.18 4.45-.29.2-.61.39-.54.77.08.41.48.4.81.42 2.94.18 5.43.02 7.63-2.77 6.96-8.78 11.12-18.56 11.94-29.74.1-1.3.28-2.57-1.78-2.57-15.52.05-31.04.04-46.56.01-1.4 0-1.88.54-1.88 1.92.03 15.52.03 31.04 0 46.56 0 1.54.61 2.1 2.07 1.87 2.26-.36 4.54-.5 6.8-.94 9.16-1.78 17.19-5.8 24.17-11.94.45-.39 1.38-.69.97-1.55-.31-.65-1.09-.4-1.66-.4-6.27-.01-12.55 0-18.82.01-3.37 0-6.74 0-10.1 0 1.27-.47 2.53-.45 3.8-.48.45-.01 1.04.19 1.28-.33.28-.61-.4-.73-.71-1.03-1.64-1.6-1.79-2.87-.43-4.81.53-.75.64-1.39.33-2.23-.78-2.15-1.48-4.33-2.23-6.5-.35-.99-.18-1.52 1.01-1.57 2.29-.09 4.58-.24 6.86-.4C152.89 146.3 156.74 146.52 160.47 145.5zM110.3 105.51c.55-1.53.24-2.88.18-4.2-.06-1.35.32-1.99 1.8-1.9 1.48.09 2.97-.04 4.45-.05 4.11-.01 8.23 0 11.95 0-1.36.72-3.39.2-5.23.76.28.2.54.28.8.28 3.27-.05 3.02.11 2.75 3.02-.07.77-.38 1.77.66 2.1 1.5.47 1.64 1.59 1.69 2.86.05 1.41.22 2.83.19 4.24-.02.77.59 1.95-.68 2.23-1.16.26-2.22.25-3.12-1.08-2.75-4.07-8.47-3.58-10.74.8-.32.61-.53 1.17-1.33 1.35-3.56.82-6.78-.34-9.52-2.26-1.82-1.28-3.45-2.22-5.66-2.1-1.07.06-2.14.01-3.49.01 1.12-1.72.15-2.55-.92-3.49-1.36-1.19-3.22-2.05-3.15-4.38.02-.79-.61-1.06-1.16-.22-.37.56-.69 1.16-.99 1.76-2.93 5.94-4.42 12.27-5.05 18.83-.22 2.26.08 2.57 2.38 2.57 15.12 0 30.23-.04 45.35.05 2.09.01 2.65-.67 2.63-2.67-.08-10.06-.03-20.11-.03-30.17 0-5.13-.04-10.26.02-15.39.02-1.58-.55-2.21-2.14-2.1-1.82.14-3.61.39-5.41.7-14.52 2.5-25.86 9.93-34.19 22.04-.3.43-.82.86-.59 1.43.3.72 1.04.5 1.61.49 4.59-.04 9.18-.04 13.76-.21 1.89-.07 2.77.46 2.61 2.45C109.69 103.93 109.49 104.73 110.3 105.51zM155.08 163.43c2.23 0 4.46.01 6.68-.01.38 0 .88.13 1.09-.3.24-.49-.23-.69-.54-.93-1.48-1.15-1.84-2.65-1.1-4.32.57-1.3-.16-1.36-1.09-1.36-3.44 0-6.89 0-10.33 0-.96 0-1.64.09-1.06 1.37.73 1.59.41 3.03-.93 4.2-.3.26-.78.49-.65.93.18.57.78.41 1.23.42C150.63 163.44 152.86 163.43 155.08 163.43zM143.11 159.23c-.03 1.79 1.15 3.05 2.63 2.98 1.57-.08 2.45-1.04 2.62-2.55.16-1.37-1.22-2.71-2.69-2.66C144.1 157.06 143.25 157.94 143.11 159.23zM166.9 159.51c-.04-1.45-1.33-2.62-2.83-2.49-1.59.13-2.46 1.1-2.4 2.65.05 1.56 1.04 2.44 2.58 2.55C165.67 162.31 166.95 160.93 166.9 159.51zM194.6 114.19c1.17-.26 2.11.44 3.11.74 1.75.53 3.42 1.11 5.3.47.65-.22 1.65-.52 1.93.74.27 1.22-.46 1.65-1.42 1.69-2.86.14-4.48 2.27-6.44 3.87-.63.51-.23.76.05 1.38 1.43 3.12 4.09 1.55 6.24 1.91.95.16 2.59-.89 2.72.98.15 2.14-1.71 1.12-2.69 1.3-1.58.29-3.54-.2-4.73.58-1.38.89-.36 3.02-.69 4.57-.07.33-.13.66-.16 1-.08.84-.17 1.7 1.03 1.77 1.04.06 1.19-.65 1.23-1.46.02-.47.04-.95.12-1.41.08-.48.45-.66.89-.6.36.05.61.29.64.67.02.34.01.67 0 1.01-.03.96-.13 2.08 1.22 2.11 1.47.03 1.05-1.27 1.22-2.11.08-.39.05-.81.07-1.21.04-.7.31-1.17 1.11-1.12.74.04.8.56.84 1.14.1 1.77-.29 3.49-.5 5.23-.08.7-.56.87-1.16.82-2.55-.21-5.1-.43-7.65-.64-.9-.08-1.04-.63-.96-1.42.46-5.18.51-10.35-.19-15.52-.18-1.33.99-1.68 1.71-2.27 1.12-.92 1.02-1.4-.32-1.86C195.94 116.15 194.45 116.05 194.6 114.19zM71.49 122.05c-1.54-.65-3.08-1.27-4.6-1.96-.63-.29-1.63-.35-1.52-1.34.12-1.08 1.14-.96 1.91-1.09 1.71-.3 3.49-.2 5.41-.96-1.69-.86-3.28-.88-4.85-1.07-.76-.1-1.87-.03-1.74-1.19.15-1.27 1.26-.71 1.96-.62 2 .25 3.99.63 5.99.91.92.13 1.78.19 1.62 1.49-.15 1.13-.01 2.4-1.67 2.52-.81.06-1.61.15-2.41.27-.49.08-1.24-.13-1.29.61-.05.65.66.77 1.14.98.74.33 1.5.62 2.25.91.73.28.94.78.94 1.58.01 1.71-.38 2.69-2.43 2.25-1.9-.41-3.88-.49-5.8-.85-.72-.14-1.99.09-1.75-1.36.23-1.46 1.37-1.02 2.24-.94C68.37 122.32 69.85 122.81 71.49 122.05zM153.78 187.8c2.55.02 4.15 1.77 3.23 3.38-.99 1.74-.26 2.67.67 3.87.33.42 1.37.99.5 1.58-.67.46-1.72.98-2.53-.06-.54-.69-1.06-1.39-1.63-2.05-.31-.37-.73-.63-1.24-.34-.49.29-.51.75-.39 1.24.14.59.31 1.17.46 1.75.2.74-.1 1.12-.82 1.33-.75.22-1.37.17-1.61-.67-.73-2.51-1.43-5.03-2.13-7.56-.17-.61.05-1.07.71-1.21C150.76 188.66 152.41 187.81 153.78 187.8zM154.55 190.95c-.14-.87-.65-1.43-1.47-1.33-.78.1-1.89.07-1.87 1.32.01.75.24 1.54 1.23 1.49C153.41 192.39 154.24 192.01 154.55 190.95zM71.08 134.62c-2.11-.35-3.52.33-4.97.31-.66-.01-1.45.19-1.55-.82-.08-.91.58-1.14 1.3-1.22 2.28-.24 4.55-.47 6.84-.64.61-.05 1.47-.32 1.68.63.2.86.24 1.71-.65 2.36-1.4 1.03-2.73 2.15-4.3 3.41 1.62.63 2.85-.33 4.14-.15.65.09 1.45-.16 1.49.87.04.93-.64 1.06-1.35 1.14-2.28.24-4.55.5-6.83.72-.67.07-1.37.11-1.62-.79-.21-.76.07-1.3.65-1.75C67.5 137.44 69.08 136.19 71.08 134.62zM165.76 186.52c.43 1.97 1.38 3.12 2.07 4.38.33.6.71 1.22-.15 1.72-.86.5-1.22-.13-1.57-.72-1.14-1.98-2.28-3.96-3.39-5.96-.29-.53-1.02-1.12-.19-1.74.68-.51 1.37-1.12 2.36-.56 1.56.87 3.15 1.68 5.1 2.72-.42-1.76-1.36-2.74-1.93-3.89-.35-.71-.45-1.25.31-1.7.84-.5 1.06.22 1.35.71 1.2 2.02 2.39 4.06 3.54 6.1.31.55.87 1.17.09 1.78-.63.5-1.3.58-2.05.15C169.62 188.56 167.9 187.67 165.76 186.52zM126.01 195.39c1.08-1.48.75-2.84 1.06-4.05.16-.63.36-1.19 1.18-1.08.87.12.85.78.76 1.38-.38 2.46-.81 4.92-1.21 7.38-.1.59-.32 1.06-1 1.03-.79-.04-1.38-.36-1.69-1.19-.74-1.94-1.55-3.86-2.72-5.83-.26 1.44-.51 2.88-.8 4.31-.15.73-.03 1.85-1.27 1.63-1.25-.22-.73-1.27-.63-1.98.28-2 .65-3.99 1-5.97.13-.74-.15-1.85 1.04-1.86 1.01-.01 1.94.29 2.34 1.52C124.56 192.17 125.27 193.61 126.01 195.39zM199.4 158.83c-.04 2.66-2.05 4.61-4.65 4.52-2.99-.1-5.56-2.51-5.48-5.12.09-2.65 2.11-4.6 4.69-4.52C197 153.81 199.45 156.11 199.4 158.83zM195.76 160.86c1.07 0 1.74-.59 1.74-1.54 0-1.21-2.77-3.24-4.47-3.21-.98.02-1.67.48-1.68 1.59C191.33 159.04 193.87 160.86 195.76 160.86zM98.5 183.1c-1.25 1.2-1.9 2.62-2.74 3.89-.41.62-.75.86-1.45.4-.72-.47-.57-.94-.2-1.52 1.29-1.97 2.57-3.94 3.85-5.93.37-.57.67-1.27 1.53-.96.8.29 1.39.82 1.39 1.78 0 1.48 0 2.96.02 4.45.01.37-.13.89.45.95.38.04.54-.33.71-.62.4-.7.79-1.41 1.25-2.07.43-.61.74-1.62 1.83-.85.98.69.22 1.32-.14 1.88-1.19 1.88-2.43 3.72-3.64 5.58-.33.51-.63 1.14-1.38.9-.66-.22-1.21-.67-1.23-1.44-.02-1.34.01-2.69.03-4.04C98.8 184.77 99.09 184.04 98.5 183.1zM74.23 149.8c-1.81.08-3.02.88-4.35 1.25-.73.2-1.58.93-2.05-.25-.47-1.19.61-1.26 1.33-1.53 1.89-.7 3.77-1.46 5.7-2.05.62-.19 1.38-1.24 2.07-.05.56.96.63 1.87-.13 2.8-1.01 1.23-1.95 2.53-3.14 4.1 1.71.01 2.77-.76 3.94-1.11.7-.21 1.29-.42 1.66.48.41 1.01-.38 1.14-.99 1.36-2.15.79-4.3 1.57-6.46 2.34-.62.22-1.26.61-1.79-.21-.48-.75-.31-1.38.21-2.03C71.5 153.29 72.76 151.67 74.23 149.8zM109.33 184.99c2.04 0 4.02 1.29 4.39 2.92.12.53.51 1.32-.35 1.54-.61.16-1.43.13-1.66-.73-.3-1.07-.76-2-2.03-1.79-1.39.22-1.84 1.48-2.31 2.59-.43 1.01-.74 2.1.06 3.06.6.72 1.49.76 2.2.29.77-.51.21-.99-.28-1.42-.37-.33-.24-.74.02-1.09.25-.34.62-.27.92-.13.93.46 2.52.48 2.56 1.61.05 1.44-.96 2.75-1.69 4.04-.05.1-.49.11-.51.07-.63-1.6-2.1-.7-3.13-1.06-2.25-.77-3.45-2.69-3.04-5.05C104.96 187.01 106.97 184.99 109.33 184.99zM178.39 180.98c-.52.23-.94.11-1.16-.42-.19-.47.13-.81.46-1 .84-.49 1.46-1.95 2.42-1.45 1.27.66 2.09 2.05 2.78 3.37.05.09-.04.37-.06.37-2 .01-1.75 2.34-3.11 3.01-.3.15-.57.37-.88.49-2.73 1.07-5.76-.85-6.83-4.31-.67-2.15 1.09-4.83 3.61-5.45.38-.09.82-.16 1.19-.07.61.15 1.6.2 1.45 1.03-.13.71-.73 1.54-1.76 1.22-.92-.29-1.6-.07-2.1.69-.53.81-.13 1.55.28 2.26.5.89 1.1 1.7 1.97 2.27.82.53 1.64.57 2.43-.06.52-.42.74-.99.49-1.62C179.36 180.7 178.86 180.82 178.39 180.98zM78.7 157.2c2.92 0 5.25 3.06 4.28 5.68-.21.56-.36 1.55-1.27 1.14-.61-.28-1.24-1-.8-1.83.49-.91.49-1.63-.3-2.33-.82-.72-1.63-.33-2.46-.03-.96.35-1.85.83-2.5 1.64-.75.92-.73 1.85.13 2.7.35.35.79.55 1.28.36.47-.18.48-.6.4-1.02-.1-.48-.22-.95.4-1.18.74-.27.97.33 1.19.78.38.8 1.56 1.6.87 2.46-.92 1.13-2.41 1.65-3.78 2.19-.11.04-.48-.23-.47-.26.57-1.7-1.13-1.86-1.81-2.69-1.27-1.56-1.24-4.03.19-5.56C75.29 157.93 76.84 157.2 78.7 157.2zM194.28 167.57c0 1.81-1.74 4.3-3.44 4.86-.62.2-1.51.6-1.82-.11-.33-.75.19-1.61 1.01-1.89.74-.25 1.33-.56 1.79-1.2.39-.55.61-1.11.06-1.62-.48-.45-1.01-.22-1.46.13-.68.55-1.31 1.16-2.03 1.66-1.01.71-2.1.9-3.2.17-1.03-.68-1.28-1.72-1.14-2.84.24-1.88 1.26-3.23 3.01-3.98.48-.21 1.06-.56 1.39.14.27.55-.06 1.07-.49 1.42-.41.34-.97.51-1.34.88-.45.46-1.01 1.03-.37 1.73.56.61 1.11.23 1.6-.15.69-.54 1.33-1.14 2.03-1.66.9-.65 1.92-.7 2.87-.2C193.77 165.45 194.27 166.4 194.28 167.57zM139.81 191.5c-.09-.66.26-1.15 1.21-1.25 1.54-.17 3.06-.4 4.6-.6.65-.08 1.25-.01 1.33.82.07.73-.5.89-1.04.98-.73.12-1.47.18-2.2.28-.79.11-1.22.56-1.11 1.38.1.78.69.78 1.33.88.87.13 2.28-1.14 2.51.42.23 1.5-1.44.93-2.27 1.18-.76.23-1.24.49-1.13 1.34.12.95.7 1.21 1.57 1.06.79-.14 1.58-.28 2.38-.38.74-.08.86.48.94 1.03.09.62-.28.83-.81.9-1.66.21-3.33.43-4.99.65-.93.12-1.37-.36-1.49-1.23-.03-.2-.05-.4-.08-.6C140.32 196.14 140.08 193.94 139.81 191.5zM97.69 177.75c-.39.7-.75 1.32-1.57.7-.7-.52-1.35-1.11-2.01-1.69-.54-.47-1.06-.55-1.6-.02-.55.55-.33 1 .06 1.59.5.75 2.28 1.13 1.37 2.24-.95 1.15-1.65-.47-2.4-.95-.69-.43-1.19-.48-1.77.12-.62.65-.49 1.16.14 1.69.66.57 1.29 1.19 1.94 1.77.46.41.4.8.01 1.21-.38.41-.76.51-1.22.1-1.36-1.21-2.73-2.4-4.08-3.62-.64-.58-.2-1.1.2-1.56 1.6-1.82 3.21-3.63 4.83-5.44.49-.55.98-.91 1.69-.26 1.24 1.14 2.52 2.23 3.77 3.36C97.32 177.21 97.5 177.5 97.69 177.75zM130.91 195.36c.02-.2.02-.4.05-.6.24-1.34-.77-3.3.51-3.94 1.76-.88 3.95-.28 5.96-.22.56.02.81.41.79.96-.02.65-.49.73-.99.74-.81.02-1.61.02-2.42.02-.66 0-1.22.14-1.24.96-.02.75.4 1.02 1.1 1.17.89.19 2.48-.37 2.47.95-.01 1.48-1.59.65-2.45.8-.84.15-1.18.5-1.17 1.31.01.77.46 1.06 1.16 1.08.81.03 1.61.04 2.42.08.49.03.94.14.95.78.01.58-.3.91-.84.91-1.81 0-3.63-.03-5.44-.1-.78-.03-.95-.61-.94-1.28.01-1.21 0-2.42 0-3.63C130.86 195.36 130.89 195.36 130.91 195.36zM203.37 148.59c0 2.18-1.19 3.9-2.89 4.4-2.36.7-5.52-.44-6.77-2.46-.87-1.4-.59-3.67.61-5.08.55-.64 1.25-1.02 2.07-1.15.5-.08 1.22-.3 1.33.44.08.59.2 1.43-.75 1.61-1.02.19-1.86.6-1.82 1.77.04 1.22 1.06 1.65 2.02 1.98.82.29 1.68.56 2.53.59 1.37.06 2.08-1.03 1.6-2.3-.07-.18-.2-.35-.32-.51-.61-.8-.46-1.67.27-2.11.74-.44 1.11.49 1.52.95C203.29 147.31 203.42 148.04 203.37 148.59zM74.27 93.46c3.26 4.01 3.27 7.45.05 11.81C70.99 100.86 70.98 98.4 74.27 93.46zM194.2 93.51c3.15 4.66 3.14 7.48-.04 11.67C190.75 101.21 190.76 97.58 194.2 93.51zM76.03 143.6c.21 1.08-.58 1.25-1.18 1.4-2.34.59-4.71 1.07-7.04 1.67-.92.24-1.23-.17-1.41-.92-.18-.71-.19-1.37.71-1.58 2.54-.6 5.09-1.17 7.64-1.77C75.92 142.12 75.83 143.06 76.03 143.6zM118.96 189.38c-.73 2.41-1.57 5.16-2.42 7.91-.2.64-.67.53-1.14.32-.59-.27-1.39-.4-1.11-1.35.75-2.57 1.51-5.13 2.27-7.7.24-.8.83-.74 1.46-.62C118.61 188.06 119.02 188.34 118.96 189.38zM159.55 185.52c.74-.1.95.5 1.19 1.06.89 2.09 1.77 4.2 2.67 6.28.37.85.36 1.51-.59 1.99-1.09.55-1.45-.15-1.78-.93-.93-2.15-1.82-4.32-2.78-6.46C157.65 186.13 158.53 185.83 159.55 185.52zM196.52 139.64c2.5.47 5.01.92 7.51 1.43.8.16 1.02.74.87 1.53-.17.87-.71 1.06-1.48.92-2.44-.44-4.89-.86-7.33-1.31-.79-.15-1.14-.63-.94-1.46C195.33 140.03 195.62 139.47 196.52 139.64zM69.31 129.91c-1.21 0-2.41-.01-3.62 0-.71.01-1.15-.23-1.17-1.03-.02-.78.19-1.34 1.08-1.34 2.55-.01 5.09-.01 7.64-.01.83 0 1.17.43 1.17 1.27.01.95-.54 1.11-1.29 1.1C71.85 129.91 70.58 129.91 69.31 129.91zM124.39 227.54c.59.03 1.32-.03 1.25.85-.08 1.03-.95.68-1.54.72-.51.03-1.15.1-1.15-.7C122.96 227.37 123.77 227.59 124.39 227.54zM133.1 231.14c-.06.51-.06 1.12-.74 1.22-.74.11-.88-.47-.9-1.03-.02-.6-.01-1.32.8-1.36C132.95 229.94 133.02 230.58 133.1 231.14z" fill="#ffffff" class="color000 svgShape"></path><path d="M112.55,163.75c-2.44-6.1-4.88-12.21-7.32-18.31c-1.81-4.52-1.82-4.54-6.21-2.39c-1.72,0.84-3.39,1.79-5.49,2.9
		c7.04-8.36,17.82-10.12,25.61-6.85c-0.42,0.52-0.98,0.31-1.44,0.3c-3.11-0.04-6.2,0.24-9.27,0.66c-1.42,0.19-2.23,0.59-1.65,2.35
		c1.48,4.46,2.72,9,4.18,13.48C111.77,158.36,112.57,160.97,112.55,163.75z" fill="#ffffff" class="color000 svgShape"></path><path d="M113.96 143.78c4.98.01 8.17 2.33 9.94 7.25-1.24-1.31-2.26-2.37-3.28-3.44-.86-.91-1.55-.76-2.3.2-1.63 2.05-3.33 4.03-5.3 5.83 1.25-1.8 2.49-3.6 3.74-5.39 1.69-2.42 1.63-2.64-1.17-3.8C115.17 144.24 114.73 144.08 113.96 143.78zM163.13 92.9c-.77.41-1.53.84-2.31 1.22-3.29 1.62-4.33 3.9-3.84 7.48.77 5.66 1.36 11.34 1.99 17.01.06.5.26 1.16-.24 1.51-.49.35-.82-.23-1.2-.47-1.4-.88-2.32-2.87-4.06-2.74-1.57.12-2.49 1.92-3.81 2.83-.27.19-.49.48-1.18.26.4-2.64.79-5.34 1.23-8.03.64-3.85 1.33-7.69 1.97-11.54.25-1.49-.35-1.88-1.7-1.21-1.39.69-2.75 1.45-4.19 2.01-1.65.65-2.82 1.47-2.57 3.51.15 1.23-.87 1.19-1.67 1.11-.83-.08-2.04.51-2.19-1.02-.04-.4-.04-.81-.03-1.21.04-1.27-.28-2.75.26-3.77.61-1.16 2.25-.25 3.38-.6 2.44-.75 4.87-1.56 7.29-2.37.73-.24.86-.92 1.13-1.56.89-2.1 2.63-2.72 4.57-1.5.92.58 1.73.61 2.66.32.77-.24 1.54-.5 2.3-.75.69-.23 1.38-.48 2.08-.71C163.05 92.77 163.09 92.83 163.13 92.9zM156.75 112.18c-.52-.92-1.36-1.66-2.51-1.92-.65-.14-3.26 2.1-3.09 2.61.38 1.15 1.32 1.84 2.46 2.11C154.22 115.14 156.72 112.89 156.75 112.18zM158.06 117.08c-.56-.95.34-2.72-1.06-3.18-.79-.26-2.23.89-2.18 1.9.06 1.28 1.43 2.03 2.57 2.48C158.21 118.61 157.91 117.67 158.06 117.08zM156.15 107.04c-.37-.9-1.1-1.42-1.97-1.43-.79-.01-1.74.39-1.79 1.28-.06.99.88 1.49 1.74 1.58C155.08 108.56 155.66 107.82 156.15 107.04zM149.73 116.8c-.03.57-.09 1.3.53 1.1.98-.31 2.06-.91 2.13-2.06.05-.84-.88-1.56-1.62-1.42C149.47 114.67 150.14 116.09 149.73 116.8zM150.86 109.83c.01.49-.28 1.21.37 1.19.9-.03 1.65-.69 1.8-1.59.11-.65-.56-1.14-1.15-1.17C150.73 108.2 151.21 109.33 150.86 109.83zM154.28 104.07c.62-.1 1.34-.25 1.27-.99-.07-.73-.72-1.13-1.46-1.07-.62.05-1.23.39-1.16 1.12C152.99 103.87 153.66 103.98 154.28 104.07zM157.15 109.48c-.06-.52-.02-1.18-.81-1.09-.47.06-.91.42-.92.93-.01.7.55 1.12 1.15 1.18C157.27 110.58 157.11 109.92 157.15 109.48zM167.89 121.06c0-5.25 0-10.51 0-15.76.01 0 .02 0 .04 0 .26 5.26.52 10.52.78 15.78C168.43 121.07 168.16 121.06 167.89 121.06zM167.38 90.48c.59.04.8.45.85.92.06.6-.19 1.06-.86 1.04-.52-.01-.95-.39-.94-.85C166.45 91.08 166.79 90.61 167.38 90.48zM125.11 116.96c0 2.57-1.86 4.41-4.44 4.42-2.52.01-4.52-1.97-4.49-4.42.03-2.47 2.07-4.49 4.51-4.48C123.23 112.48 125.12 114.4 125.11 116.96zM102.91 117.59c0 2.59-1.86 4.38-4.51 4.37-2.55-.01-4.4-1.78-4.43-4.24-.03-2.58 2.04-4.62 4.62-4.55C101.03 113.23 102.92 115.16 102.91 117.59zM145.65 158.12c.75.11 1.44.4 1.48 1.3.04.9-.35 1.57-1.35 1.63-.99.05-1.5-.55-1.52-1.46C144.25 158.74 144.79 158.26 145.65 158.12zM165.71 159.6c-.16.86-.52 1.46-1.42 1.44-.96-.02-1.46-.6-1.45-1.52.01-.86.59-1.38 1.39-1.39C165.16 158.12 165.63 158.75 165.71 159.6z" fill="#ffffff" class="color000 svgShape"></path></svg></g></svg>